<?xml version="1.0" encoding="UTF-8"?>
<!DOCTYPE svg PUBLIC "-//W3C//DTD SVG 1.1//EN" "http://www.w3.org/Graphics/SVG/1.1/DTD/svg11.dtd">
<!-- Creator: CorelDRAW 2019 (64-Bit) -->
<svg xmlns="http://www.w3.org/2000/svg" xml:space="preserve" width="458px" height="288px" version="1.1" style="shape-rendering:geometricPrecision; text-rendering:geometricPrecision; image-rendering:optimizeQuality; fill-rule:evenodd; clip-rule:evenodd"
viewBox="0 0 457 287.29"
 xmlns:xlink="http://www.w3.org/1999/xlink"
 xmlns:xodm="http://www.corel.com/coreldraw/odm/2003">
 <defs>
  <style type="text/css">
   <![CDATA[
    .str0 {stroke:black;stroke-width:2.36;stroke-miterlimit:22.9256}
    .fil0 {fill:black}
   ]]>
  </style>
   <clipPath id="id0">
    <path d="M100.03 26.1l256.94 0c59.69,25.68 98.86,68.74 98.86,117.55 0,78.68 -101.78,142.47 -227.33,142.47 -125.55,0 -227.32,-63.79 -227.32,-142.47 0,-48.81 39.16,-91.87 98.85,-117.55z"/>
   </clipPath>
 </defs>
 <g id="Layer_x0020_1">
  <metadata id="CorelCorpID_0Corel-Layer"/>
  <path class="fil0 str0" d="M228.5 1.18c125.55,0 227.33,63.78 227.33,142.47 0,78.68 -101.78,142.47 -227.33,142.47 -125.55,0 -227.32,-63.79 -227.32,-142.47 0,-78.69 101.77,-142.47 227.32,-142.47z"/>
  <g style="clip-path:url(#id0)">
   <image id="LOGOTIPO.png" x="1.18" y="26.1" width="454.65" height="468.61" xlink:href="icon_Images\icon_ImgID1.png"/>
  </g>
 </g>
</svg>
